<svg xmlns="http://www.w3.org/2000/svg" xmlns:xlink="http://www.w3.org/1999/xlink" viewBox="0 0 2824.85 685.8"><defs><style>.cls-1,.cls-12,.cls-4{fill:none;}.cls-10,.cls-12,.cls-2,.cls-3,.cls-4,.cls-6,.cls-7,.cls-8,.cls-9{stroke:#000;stroke-width:6px;}.cls-12,.cls-2,.cls-3{stroke-miterlimit:10;}.cls-2{fill:url(#linear-gradient);}.cls-3{fill:url(#linear-gradient-2);}.cls-10,.cls-12,.cls-4,.cls-6,.cls-7,.cls-8,.cls-9{stroke-linecap:round;}.cls-10,.cls-4,.cls-6,.cls-7,.cls-8,.cls-9{stroke-linejoin:round;}.cls-5{clip-path:url(#clip-path);}.cls-6{fill:url(#linear-gradient-3);}.cls-7{fill:url(#linear-gradient-4);}.cls-8{fill:url(#linear-gradient-5);}.cls-9{fill:url(#linear-gradient-6);}.cls-10{fill:url(#linear-gradient-7);}.cls-11{fill:#fff;}.cls-13{font-size:350px;fill:#31629e;font-family:BalooBhaina2-Regular, "Baloo Bhaina 2";letter-spacing:0.05em;}.cls-14,.cls-20{letter-spacing:0.05em;}.cls-15{letter-spacing:0.06em;}.cls-16,.cls-17,.cls-18,.cls-19,.cls-20{fill:#33b8cc;}.cls-16{letter-spacing:0.05em;}.cls-17{letter-spacing:0.04em;}.cls-18{letter-spacing:0.05em;}.cls-19{letter-spacing:0.07em;}</style><linearGradient id="linear-gradient" x1="354" y1="707" x2="414.07" y2="707" gradientUnits="userSpaceOnUse"><stop offset="0.15" stop-color="#999"/><stop offset="0.23" stop-color="#a0a0a0"/><stop offset="0.35" stop-color="#b4b4b4"/><stop offset="0.46" stop-color="#ccc"/></linearGradient><linearGradient id="linear-gradient-2" x1="347" y1="389.92" x2="399" y2="389.92" gradientUnits="userSpaceOnUse"><stop offset="0" stop-color="#999"/><stop offset="0.17" stop-color="#a0a0a0"/><stop offset="0.42" stop-color="#b4b4b4"/><stop offset="0.65" stop-color="#ccc"/></linearGradient><clipPath id="clip-path" transform="translate(-95.5 -133.5)"><path class="cls-1" d="M0,79.28V976.72a.27.27,0,0,0,.28.28H990.72a.27.27,0,0,0,.28-.28V79.28a.27.27,0,0,0-.28-.28H.28A.27.27,0,0,0,0,79.28ZM344.28,202h57.44a.27.27,0,0,1,.28.28v85.44a.27.27,0,0,1-.28.28H344.28a.27.27,0,0,1-.28-.28V202.28A.27.27,0,0,1,344.28,202Zm0,219h57.44a.27.27,0,0,1,.28.28v86.44a.27.27,0,0,1-.28.28H344.28a.27.27,0,0,1-.28-.28V421.28A.27.27,0,0,1,344.28,421Zm72.44,325H351.28a.27.27,0,0,1-.28-.28V655.28a.27.27,0,0,1,.28-.28h65.44a.27.27,0,0,1,.28.28v90.44A.27.27,0,0,1,416.72,746Z"/></clipPath><linearGradient id="linear-gradient-3" x1="98.5" y1="228.99" x2="730" y2="228.99" gradientUnits="userSpaceOnUse"><stop offset="0" stop-color="#31629e"/><stop offset="0.34" stop-color="#31649f"/><stop offset="0.53" stop-color="#316da4"/><stop offset="0.68" stop-color="#327bab"/><stop offset="0.82" stop-color="#328eb6"/><stop offset="0.94" stop-color="#33a8c3"/><stop offset="1" stop-color="#33b8cc"/></linearGradient><linearGradient id="linear-gradient-4" x1="184.73" y1="462.75" x2="598.53" y2="462.75" xlink:href="#linear-gradient-3"/><linearGradient id="linear-gradient-5" x1="101.01" y1="356.35" x2="606.04" y2="356.35" gradientUnits="userSpaceOnUse"><stop offset="0" stop-color="#33b8cc"/><stop offset="0.17" stop-color="#329cbd"/><stop offset="0.36" stop-color="#3282af"/><stop offset="0.55" stop-color="#3170a6"/><stop offset="0.76" stop-color="#3165a0"/><stop offset="1" stop-color="#31629e"/></linearGradient><linearGradient id="linear-gradient-6" x1="187.24" y1="582.35" x2="520.49" y2="582.35" xlink:href="#linear-gradient-5"/><linearGradient id="linear-gradient-7" x1="271.65" y1="686.39" x2="512.99" y2="686.39" gradientUnits="userSpaceOnUse"><stop offset="0" stop-color="#31629e"/><stop offset="1" stop-color="#33b8cc"/></linearGradient></defs><title>scikit-surgery-logo</title><g id="scalpel"><path class="cls-2" d="M354,623V807c21-4,54-29,59-61,1.46-9.37,1-65,1-81,0-8-8.89-9.25-23.14-15.13a7.83,7.83,0,0,1-4.86-7.22V607Z" transform="translate(-95.5 -133.5)"/><path class="cls-3" d="M382.65,628.93l-23,13.25A8.42,8.42,0,0,1,347,635.07V162c0-14,11.7-25.5,26-25.5h0c14.3,0,26,11.47,26,25.5V600.9A32.4,32.4,0,0,1,382.65,628.93Z" transform="translate(-95.5 -133.5)"/><line class="cls-4" x1="251.5" y1="79.5" x2="303.5" y2="102.5"/><line class="cls-4" x1="251.5" y1="56.5" x2="303.5" y2="79.5"/><line class="cls-4" x1="251.5" y1="133.5" x2="303.5" y2="156.5"/><line class="cls-4" x1="251.5" y1="110.5" x2="303.5" y2="133.5"/></g><g id="snake"><g class="cls-5"><path class="cls-6" d="M730,228c0,11-8.19,19-20.11,24.8C681.7,266.52,632.68,268,622,268H177.5A84.09,84.09,0,0,0,101,317.31a82.25,82.25,0,0,1-2.51-19.48,84.1,84.1,0,0,1,84-84.83H503.36a21.69,21.69,0,0,0,20.58-14.74C530.7,178.13,548.88,144.14,595,141,683,135,730,212.81,730,228Z" transform="translate(-95.5 -133.5)"/><path class="cls-7" d="M598.53,444.69A84.09,84.09,0,0,1,522,494H263.73a84.1,84.1,0,0,0-76.49,49.3,82.75,82.75,0,0,1-2.51-19.47,84.1,84.1,0,0,1,84-84.83H521.42a29.63,29.63,0,0,0,6.76-.78,28.91,28.91,0,0,0,2.08-56C563.43,387.79,590.41,412.5,598.53,444.69Z" transform="translate(-95.5 -133.5)"/><path class="cls-8" d="M606,409.17a83.36,83.36,0,0,1-7.51,35.52c-8.12-32.19-35.1-56.9-68.27-62.49A28.33,28.33,0,0,0,522,381H183.57a85.32,85.32,0,0,1-14.29-1.2c-33.17-5.59-60.15-30.3-68.27-62.49A84.09,84.09,0,0,1,177.5,268h5.62c-15.78,0-29.14,12.35-29.61,28.12a29,29,0,0,0,29,29.88H521C567.21,326,605.59,362.93,606,409.17Z" transform="translate(-95.5 -133.5)"/><path class="cls-9" d="M520.49,635.17A83.55,83.55,0,0,1,513,670.7c-8.11-32.2-35.09-56.91-68.27-62.5a28.33,28.33,0,0,0-8.22-1.2H269.8a85.32,85.32,0,0,1-14.29-1.2c-33.18-5.59-60.16-30.3-68.27-62.5A84.1,84.1,0,0,1,263.73,494h5.62c-15.78,0-29.14,12.35-29.61,28.12a29,29,0,0,0,29,29.88h166.7C481.67,552,520.05,588.93,520.49,635.17Z" transform="translate(-95.5 -133.5)"/><path class="cls-10" d="M513,670.7A84.12,84.12,0,0,1,436.5,720H355.65c-41,3.06-68.39,45.44-79,44.57-3.23-.27-4.92-4.52-5-15.08C271.43,703,309.55,665,356,665h79.86a29.63,29.63,0,0,0,6.76-.78,28.91,28.91,0,0,0,2.08-56C477.9,613.79,504.88,638.5,513,670.7Z" transform="translate(-95.5 -133.5)"/></g><circle class="cls-11" cx="522.5" cy="58.5" r="19"/><path d="M618,176a16,16,0,1,1-16,16,16,16,0,0,1,16-16m0-6a22,22,0,1,0,22,22,22,22,0,0,0-22-22Z" transform="translate(-95.5 -133.5)"/><path class="cls-12" d="M643,235c12,12,43.72,23.82,67,18" transform="translate(-95.5 -133.5)"/></g><g id="Layer_5" data-name="Layer 5"><text class="cls-13" transform="translate(641.59 433.46)">s<tspan class="cls-14" x="175.69" y="0">ciki</tspan><tspan class="cls-15" x="752.14" y="0">t</tspan><tspan class="cls-16" x="902.28" y="0">su</tspan><tspan class="cls-17" x="1286.23" y="0">r</tspan><tspan class="cls-18" x="1433.22" y="0">ge</tspan><tspan class="cls-19" x="1837.82" y="0">r</tspan><tspan class="cls-20" x="1994.61" y="0">y</tspan></text></g></svg>